# xmcd
#
# Track frame offsets:
#	150
#	23827
#	44352
#	62167
#	85207
#	104592
#	125452
#	143945
#	162047
#	180250
#	197137
#
# Disc length: 2869 seconds
#
# Revision: 0
# Processed by: cddbd v1.4PL0 Copyright (c) Steve Scherf et al.
# Submitted via: dBpowerAMP V4.0
#
DISCID=920b330b
DTITLE=Kevin Carley and Big Deal - Blind Side
DYEAR=1999
DGENRE=Blues
TTITLE0=Sphinkster Shuffle
TTITLE1=One Way Trace
TTITLE2=Winding It Down The Road
TTITLE3=Little Red Rooster
TTITLE4=Do You Really Care Enough?
TTITLE5=Blind Side
TTITLE6=Spare A Dime
TTITLE7=Walking The Dog
TTITLE8=Queen of Rock and Roll
TTITLE9=Wondering Why
TTITLE10=Shame Shame
EXTD=
EXTT0=
EXTT1=
EXTT2=
EXTT3=
EXTT4=
EXTT5=
EXTT6=
EXTT7=
EXTT8=
EXTT9=
EXTT10=
PLAYORDER=
